<svg width="401" height="462" viewBox="0 0 401 462" fill="none" xmlns="http://www.w3.org/2000/svg">
<path d="M385.027 165.683C381.951 161.766 371.91 145.662 372.878 141.272C373.574 138.109 380.086 136.954 375.998 132.722C373.932 130.584 370.497 130.584 368.496 127.148C367.485 125.412 364.788 114.71 365.082 112.974C365.34 111.482 366.853 108.892 367.355 106.941C369.062 100.305 368.804 86.2745 361.374 83.3335C357.121 81.6477 343.186 81.4182 341.027 79.2518C336.738 74.955 345.387 55.874 344.297 50.1784C343.229 44.6047 332.449 45.5731 328.103 45.652C326.561 45.6807 324.746 46.6348 323.455 46.2833C321.426 45.731 321.655 42.546 320.199 41.2261C318.442 39.6336 314.117 39.6838 311.707 38.0125C309.635 36.5778 309.434 34.2752 306.838 33.2422C302.448 31.5063 299.192 34.06 295.233 33.1418C292.515 32.5105 292.494 29.7201 290.091 28.6513C285.881 26.7719 282.367 27.9268 278.73 27.6327C275.273 27.3529 274.097 24.3545 274.04 21.2341C273.975 17.6331 276.6 6.14145 276.048 4.19031C275.761 3.17887 273.76 1.5577 272.756 1.24925C265.154 -1.1036 259.438 7.49003 254.073 11.5501C250.186 14.4984 245.373 16.4351 241.816 19.9429C240.087 21.6501 234.221 30.9754 233.152 31.0544C231.144 31.205 227.579 24.7347 225.951 23.2785C223.9 21.4421 219.41 19.6058 216.635 19.4838C207.964 19.0964 209.821 25.9398 206.257 31.1835C205.36 32.4962 192.443 46.0968 191.475 46.6922C184.906 50.7451 181.685 46.3192 176.679 46.4555C173.402 46.5487 170.82 52.4165 169.579 55.0706C168.166 58.0762 166.954 60.8523 165.792 63.4419C165.369 63.9296 164.967 64.4461 164.587 65.0056C162.514 68.0758 160.944 70.6582 157.673 72.6452C154.517 74.5605 151.003 75.6724 147.496 76.7484C143.465 77.9822 139.384 79.302 135.189 79.84C130.24 78.721 117.467 76.9635 115.444 76.9707C112.604 76.9779 102.972 77.7957 100.641 78.7282C99.0058 79.381 98.1236 80.4426 97.7148 81.7123L98.5754 81.1456L93.3614 84.5529C92.472 85.1268 88.7928 85.055 88.3266 84.517C87.7169 83.8069 89.4096 77.3724 85.343 77.81C81.4844 78.2261 61.7971 90.3274 58.9785 93.5052C52.4735 100.829 58.6199 104.71 60.4201 111.403C61.8115 116.575 64.5153 133.36 64.8022 138.733C64.9313 141.064 64.6946 143.855 61.7684 143.855C58.29 143.855 58.3402 139.508 56.2746 137.578C54.3238 135.756 50.788 135.569 48.787 134.056C46.7717 132.535 47.0227 129.695 44.6416 130.025C42.1815 130.369 37.3834 135.11 34.7872 136.767C32.4706 138.245 30.2186 138.274 28.0096 140.311C22.9891 144.945 22.7166 155.676 28.8415 159.5C31.7892 161.343 35.698 161.2 38.2369 162.484C35.3968 164.507 30.1397 167.297 29.3579 169.915C28.6335 172.326 30.6632 175.79 30.8856 178.645C31.1653 182.261 29.4225 182.913 32.2196 187.095C37.1396 194.448 45.9612 187.877 49.038 197.461C39.2769 198.02 23.6633 186.17 19.1019 200.23C18.2197 202.963 18.5353 207.288 17.7105 209.161C16.6347 211.607 6.32843 217.596 3.61022 221.219C0.576437 225.265 -1.43891 231.362 2.21884 235.687C5.20241 239.217 8.58045 237.222 9.14705 237.674C10.0364 238.385 9.57737 240.601 10.4452 241.225C10.4452 241.225 10.4739 241.24 10.4882 241.24C10.6388 244.432 12.1808 247.495 11.8294 250.737C11.4564 254.152 8.4155 256.074 7.88476 258.527C7.24645 261.44 6.09892 272.766 6.3356 275.628C6.75158 280.757 9.65626 280.255 10.8253 282.83C12.9124 287.414 7.93497 292.514 7.21776 297.098C6.18499 303.726 6.88785 311.194 12.604 315.476C13.2997 316 16.5056 317.736 17.1511 317.786C17.2658 317.793 17.3877 317.786 17.4953 317.772C20.1418 319.687 21.2535 322.721 20.816 326.882C20.8375 327.111 20.7873 327.348 20.816 327.57C23.8713 336.15 30.1397 342.204 39.6211 345.719L42.1529 347.534C42.2461 347.699 42.074 348.007 42.1529 348.222L42.8414 349.6C42.9274 350.503 42.7625 351.45 42.8414 352.354V354.42C42.9131 354.65 42.7481 354.972 42.8414 355.109C43.6949 355.941 44.4623 356.113 45.5954 355.797C46.2911 355.582 46.9295 355.31 47.661 355.109C50.0923 357.289 52.8392 360.037 55.9232 363.365C56.0236 363.537 55.83 363.874 55.9232 364.054L57.3648 366.07C59.6025 371.736 62.7725 376.951 68.9979 372.31C69.2059 372.246 69.4784 372.375 69.6864 372.31C71.3718 370.388 72.7489 371.076 73.8175 374.376C73.9107 374.548 73.7243 374.878 73.8175 375.065C75.2447 376.686 77.3031 377.324 79.3256 377.819C81.09 377.977 83.134 377.59 84.8338 377.819C87.0213 378.357 86.4977 379.756 83.2774 382.009C79.6484 383.874 76.9589 386.377 75.2017 389.519C75.1156 390.071 75.1515 390.99 75.2017 391.585L75.8902 392.962C75.9763 393.177 75.7898 393.507 75.8902 393.651L77.2673 395.028C77.6402 395.129 78.8881 395.1 79.3328 395.028C84.3819 390.136 88.9721 391.965 93.096 400.537C93.2036 400.695 92.9884 401.068 93.096 401.226C95.5273 404.267 98.2742 407.108 101.358 409.482C101.523 409.583 101.875 409.382 102.047 409.482L104.112 410.86C104.306 410.939 104.6 410.781 104.801 410.86L106.178 411.548C106.386 411.62 106.658 411.477 106.866 411.548L109.62 412.237C109.828 412.301 110.101 412.172 110.309 412.237L111.686 412.926C111.901 412.997 112.188 412.847 112.374 412.926C116.384 417.1 120.737 420.773 125.449 423.937C125.937 424.173 126.848 424.374 127.515 424.625L130.957 426.691C131.151 426.777 131.459 426.605 131.646 426.691L141.285 432.889C141.472 432.982 141.78 432.803 141.974 432.889L145.416 434.955C145.638 434.991 145.875 434.94 146.105 434.955C152.502 434.926 157.092 430.794 159.868 422.567C159.918 422.409 159.861 422.222 159.853 422.036C163.346 414.217 164.035 405.372 166.43 397.101C166.545 397.116 166.653 397.123 166.746 397.101L178.816 389.189C178.938 389.031 179.06 388.873 179.182 388.716C179.232 388.716 179.283 388.73 179.34 388.723C181.8 388.551 182.962 386.915 186.892 387.625C196.496 389.354 195.807 400.831 199.788 406.391C200.698 407.668 205.848 412.775 207.11 413.521C212.697 416.799 215.709 412.172 219.382 420.522C221.34 424.962 220.845 429.352 223.563 433.549C224.33 434.732 230.592 441.827 231.459 442.214C233.46 443.118 235.72 440.112 236.25 442.207C237.642 447.745 224.746 448.878 223.957 451.253C222.688 455.097 227.264 456.295 229.078 458.318C230.161 459.523 229.939 461.704 231.789 461.869C236.946 462.328 241.493 441.059 250.967 446.073C252.215 446.733 253.241 448.419 254.611 449.309C258.01 451.518 266.753 457.293 270.31 457.041C271.336 456.97 273.538 456.26 274.298 455.65C276.995 453.505 278.408 440.041 283.091 436.038C287.538 432.243 292.049 433.377 297.084 432.824C298.748 432.645 300.282 431.834 301.968 431.648C303.316 431.497 306.493 433.219 307.878 431.06C311.7 425.113 297.901 418.033 302.958 413.908C306.852 410.731 314.311 416.347 319.568 414.683C321.16 414.181 326.59 406.161 327.651 404.188C330.8 398.349 327.751 399.77 324.761 396.341C318.327 388.967 324.954 374.929 316.111 367.131C311.378 362.956 312.582 363.15 309.204 358.896C307.497 356.744 301.186 353.071 300.928 350.611C300.634 347.806 304.535 345.733 305.045 343.029C306.07 337.556 300.949 328.13 308.702 324.658C310.868 323.69 313.945 323.919 316.125 323.116C321.311 321.215 318.485 307.263 319.668 303.274C320.493 300.498 327.328 297.543 325.593 291.582C324.545 288.002 310.603 284.911 309.039 281.274C307.591 277.91 310.581 266.253 311.729 262.286C314.074 254.216 322.186 255.751 329.15 252.867C331.854 251.748 335.526 248.578 337.391 248.033C339.6 247.387 341.744 248.054 343.824 247.581C345.359 247.229 346.155 245.63 348.077 245.601C350.25 245.572 351.792 247.581 353.635 247.703C357.329 247.947 366.746 240.881 366.351 237.079C366.122 234.891 363.447 234.884 362.995 233.507C362.557 232.18 363.081 230.322 362.851 228.83C362.435 226.168 356.418 220.982 354.345 218.063C353.736 217.202 353.205 215.868 352.653 214.662C352.115 211.664 352.323 208.465 353.994 206.04C355.285 204.168 356.97 202.446 358.72 200.796C363.454 198.939 368.137 196.751 375.23 195.352C380.71 194.269 396.144 195.208 398.826 190.725C404.844 180.654 390.141 172.189 385.027 165.676V165.683Z" fill="#E9E4DD"/>
</svg>
