<svg width="455" height="525" viewBox="0 0 455 525" fill="none" xmlns="http://www.w3.org/2000/svg">
<g clip-path="url(#clip0_326_6413)">
<path d="M196.417 148.032C195.561 149.451 195.169 148.725 194.264 148.709C182.353 148.481 173.664 143.905 161.696 148.554C147.06 154.231 137.017 165.055 143.283 181.604C146.016 188.814 158.563 200.046 146.726 206.375C138.266 210.902 128.908 205.731 124.242 198.292C117.462 187.477 120.856 174.72 116.581 164.467C112.975 155.813 103.218 153.929 106.987 142.388C108.659 137.273 114.68 133.782 117.503 129.419C118.849 127.331 120.66 123.318 121.965 119.027C123.548 117.478 125.269 115.977 125.783 113.432C126.248 111.132 125.139 103.579 123.295 102.192C121.745 101.034 114.321 100.993 113.53 99.8188C113.146 99.2478 113.465 93.0489 111.857 91.3116L110.878 91.9559C111.343 90.5122 112.347 89.3051 114.207 88.5628C116.858 87.5025 127.815 86.5726 131.045 86.5645C133.852 86.5563 154.965 89.5416 155.716 90.5448C157.233 92.5677 146.171 96.3849 144.743 97.1761C139.465 100.096 133.093 104.231 132.318 110.585C132.033 112.951 131.413 119.305 131.494 121.393C131.959 132.828 144.808 135.291 153.725 135.96C161.239 136.523 159.387 135.74 166.689 137.885C176.552 140.781 191.661 135.83 196.434 148.056L196.417 148.032ZM187.443 156.294C181.928 156.539 175.5 155.658 170.18 156.262C160.994 157.298 148.031 170.405 149.475 180.079C150.356 185.952 156.662 188.57 157.707 193.79C159.33 201.914 151.637 208.292 160.007 214.956C165.922 219.662 191.718 226.408 200.325 228.659C214.855 232.46 220.786 229.23 213.264 214.94C208.198 205.331 204.6 205.649 197.266 199.63C185.232 189.744 198.677 189.899 204.241 184.035C208.247 179.81 206.297 175.495 208.581 171.939L223.021 158.211C223.054 157.192 218.134 156.531 217.066 156.352C211.877 155.503 203.833 154.761 198.612 154.908C195.136 155.006 190.87 156.131 187.443 156.286V156.294Z" fill="#E9E4DD" fill-opacity="0.1" stroke="#1C1B1B" stroke-width="2"/>
<path d="M32.5267 180.397C35.8797 182.494 40.326 182.33 43.214 183.79C43.6137 183.505 43.989 183.228 44.2908 182.967C45.792 182.738 51.9759 189.859 54.2602 190.756C56.259 191.539 58.3475 191.254 60.2238 191.841C68.9205 194.573 100.721 204.777 105.159 211.098C106.595 213.138 106.742 215.487 108.341 217.289C111.58 213.178 116.874 213.227 121.247 211.425C123.067 210.674 129.74 206.237 130.246 206.343C130.85 206.466 131.053 207.191 131.086 208.146C131.266 207.926 131.388 207.714 131.445 207.51C131.714 206.466 125.783 203.048 124.405 201.254C118.261 193.268 118.841 179.598 115.798 169.941C112.518 159.541 101.211 148.253 105.233 137.486C107.256 132.062 111.767 132.225 115.316 128.783C117.56 126.605 118.506 123.473 120.146 121.091C121.9 118.547 125.065 117.038 125.8 113.424C126.265 111.124 125.155 103.571 123.311 102.185C121.761 101.026 114.337 100.986 113.546 99.8111C113.163 99.2401 113.481 93.0412 111.874 91.3038L105.942 95.1782C104.931 95.8307 100.746 95.7491 100.215 95.1374C99.522 94.3299 101.447 87.0135 96.8216 87.5111C92.4325 87.9841 70.0382 101.744 66.832 105.357C59.4325 113.685 66.4241 118.098 68.4718 125.708C70.0545 131.589 73.1301 150.675 73.4565 156.784C73.6033 159.435 73.3341 162.608 70.0055 162.608C66.0488 162.608 66.1059 157.665 63.7564 155.471C61.5373 153.399 57.5153 153.187 55.2392 151.466C52.9467 149.737 53.2323 146.507 50.5237 146.882C47.7255 147.274 42.2676 152.665 39.3143 154.549C36.6792 156.23 34.1176 156.262 31.6048 158.579C25.8941 163.848 25.5841 176.05 32.5512 180.397H32.5267Z" fill="#E9E4DD" fill-opacity="0.1" stroke="#1C1B1B" stroke-width="2"/>
<path d="M136.919 242.362C147.305 256.93 147.24 275.094 140.982 291.424C139.514 295.265 131.013 310.061 127.105 310.469C125.645 310.624 117.837 305.273 117.356 304.368C116.002 301.807 116.116 296.22 114.37 292.68C113.138 290.184 108.252 286.048 107.941 284.189C107.085 279.091 112.804 277.264 111.751 273.447C111.433 272.305 103.038 263.585 100.917 264.279C98.5269 265.886 102.41 277.239 102.32 279.719C102.288 280.665 102.068 281.024 101.219 281.448C97.2542 282.606 87.7091 271.513 83.0671 269.956C77.6093 268.12 66.7099 270.926 60.8441 270.119C58.1356 269.744 56.9934 266.595 53.926 267.403C55.9492 276.367 49.1452 274.939 46.3062 277.794C44.3645 279.743 43.6874 288.234 38.9964 284.287C38.3111 283.707 34.9499 279.189 34.7052 278.414C33.5794 274.915 34.8113 268.332 33.2286 263.43C32.7064 261.815 30.9035 261.179 29.6226 259.98C29.0189 259.417 28.9455 258.088 28.8639 258.023C26.7101 256.416 23.9119 266.775 23.5856 267.99C23.0063 270.127 24.23 274.14 20.6404 274.45C19.9959 274.507 11.9683 273.593 11.6011 273.332C10.614 272.615 11.1361 270.094 10.1245 269.295C9.47999 268.781 5.63747 271.049 2.24366 267.036C-1.91703 262.117 0.375426 255.184 3.82635 250.584C6.91831 246.465 18.6335 239.654 19.8654 236.873C20.8036 234.744 20.4446 229.826 21.4481 226.718C26.6286 210.731 44.3972 224.214 55.5005 223.57C52.0088 212.672 41.966 220.144 36.3695 211.783C33.1878 207.028 35.1784 206.294 34.852 202.175C34.5991 198.929 32.2904 194.989 33.1143 192.249C34.1178 188.904 41.5663 185.307 44.2911 182.975C45.7922 182.746 51.9761 189.867 54.2604 190.764C56.2592 191.547 58.3477 191.262 60.2241 191.849C68.9208 194.581 100.721 204.785 105.16 211.106C106.595 213.146 106.742 215.495 108.341 217.297C111.58 213.186 116.875 213.235 121.248 211.433C123.067 210.682 129.74 206.245 130.246 206.351C131.976 206.71 130.491 211.898 130.613 213.814C130.711 215.38 130.809 216.18 131.543 217.599C134.545 223.431 146.93 230.715 151.025 236.473C158.808 247.435 142.842 242.338 136.928 242.362H136.919Z" fill="#E9E4DD" fill-opacity="0.1" stroke="#1C1B1B" stroke-width="2"/>
<path d="M117.356 304.368C116.002 301.807 116.116 296.219 114.37 292.679C113.138 290.183 108.251 286.048 107.941 284.188C107.085 279.091 112.803 277.264 111.751 273.446C111.433 272.304 103.038 263.585 100.917 264.278C98.5266 265.885 102.41 277.239 102.32 279.719C102.288 280.665 102.067 281.024 101.219 281.448C97.2539 282.606 87.7088 271.513 83.0668 269.955C77.6089 268.12 66.7096 270.926 60.8438 270.118C58.1353 269.743 56.9931 266.595 53.9256 267.402C55.9489 276.366 49.1449 274.939 46.3059 277.794C44.3642 279.743 43.6871 288.234 38.9961 284.286C38.3108 283.707 34.9496 279.189 34.7049 278.414C33.579 274.915 34.8109 268.332 33.2282 263.43C32.7061 261.815 30.9031 261.179 29.6223 259.98C29.0186 259.417 28.9452 258.088 28.8636 258.022C26.7098 256.416 23.9115 266.774 23.5852 267.99C23.006 270.127 24.2297 274.14 20.6401 274.45C20.0119 274.507 12.3024 273.634 11.6497 273.348C11.8211 276.978 13.5751 280.461 13.1753 284.148C12.7511 288.03 9.29202 290.216 8.68832 293.006C7.96223 296.317 6.65692 309.196 6.92614 312.451C7.39932 318.283 10.7034 317.712 12.0332 320.64C14.4072 325.852 8.74542 331.651 7.9296 336.863C6.75482 344.4 7.55432 352.891 14.0564 357.76C14.8478 358.356 18.4945 360.329 19.2287 360.387C21.048 360.525 22.3696 357.842 24.6376 359.693C27.1748 361.757 27.7133 374.489 34.0114 368.413C38.3271 364.253 35.9612 359.049 33.9788 354.277C33.1467 352.271 31.1805 351.529 31.156 349.22C31.1316 346.888 33.4811 344.424 33.5464 342.075C33.6117 339.816 31.6129 338.592 32.1187 336.088C32.29 335.248 35.023 330.942 35.5533 330.811C41.5578 336.276 52.1471 340.028 60.2319 337.508C64.5884 336.145 64.1805 329.628 66.1956 328.405C69.9239 326.137 81.5086 326.896 86.2485 325.942C87.4069 325.705 97.311 321.015 97.8413 320.305C101.912 314.824 88.6959 310.534 86.8195 306.562C90.5479 306.333 94.4556 306.855 98.1676 306.545C101.619 306.252 107.231 304.4 109.891 304.335C113.66 304.245 116.369 305.289 117.764 304.824C117.56 304.637 117.413 304.482 117.364 304.392L117.356 304.368Z" fill="#E9E4DD" fill-opacity="0.1" stroke="#1C1B1B" stroke-width="2"/>
<path d="M199.624 256.008C199.134 260.633 197.307 265.42 195.659 269.768C195.088 271.285 194.476 272.786 193.864 274.278C193.334 275.575 192.811 276.864 192.281 278.161C189.981 283.805 187.231 289.27 184.67 294.8C184.67 294.8 181.643 300.069 181.537 300.281C177.866 306.554 173.338 312.386 167.448 316.717C148.104 334.359 118.319 343.437 120.579 374.147C121.664 388.853 136.087 411.446 145.551 422.751C150.258 428.371 155.406 432.197 160.407 437.254C168.288 446.046 175.337 455.434 181.545 465.426C181.618 465.655 181.488 465.956 181.545 466.209L182.328 467.775C182.393 468.281 182.287 468.827 182.328 469.341C183.071 471.07 183.054 473.093 182.328 474.822C182.296 475.336 182.385 475.875 182.328 476.388L181.545 478.738C181.488 478.99 181.618 479.292 181.545 479.521C178.388 488.884 173.166 493.574 165.889 493.607C165.628 493.591 165.359 493.648 165.106 493.607L161.19 491.258C160.97 491.16 160.619 491.364 160.407 491.258L149.442 484.211C149.23 484.113 148.879 484.308 148.659 484.211L144.743 481.862C143.985 481.576 142.948 481.348 142.394 481.078C137.034 477.481 132.074 473.305 127.521 468.558C127.309 468.469 126.983 468.64 126.738 468.558L125.172 467.775C124.935 467.702 124.625 467.849 124.388 467.775L121.256 466.992C121.019 466.911 120.709 467.074 120.473 466.992L118.906 466.209C118.678 466.119 118.343 466.299 118.123 466.209L115.773 464.643C115.578 464.529 115.178 464.757 114.99 464.643C111.49 461.943 108.358 458.705 105.592 455.255C105.47 455.076 105.714 454.651 105.592 454.472C100.901 444.733 95.6797 442.645 89.9363 448.208C89.4305 448.289 88.011 448.322 87.5868 448.208L86.0204 446.642C85.9062 446.479 86.1183 446.103 86.0204 445.859L85.2372 444.293C85.1801 443.616 85.1393 442.572 85.2372 441.944C87.236 438.371 90.3035 435.524 94.4234 433.404C98.0864 430.843 98.6819 429.252 96.1937 428.64C94.2683 428.379 91.9351 428.82 89.9282 428.64C87.6276 428.078 85.2943 427.352 83.6627 425.508C83.5566 425.296 83.7687 424.929 83.6627 424.725C82.4471 420.981 80.8889 420.198 78.9635 422.376C78.727 422.45 78.4169 422.303 78.1803 422.376C71.099 427.645 67.4931 421.715 64.9477 415.28L63.3079 412.988C63.2019 412.784 63.4221 412.401 63.3079 412.205C59.808 408.42 56.6753 405.288 53.9097 402.817C53.0775 403.045 52.3514 403.355 51.5601 403.6C50.2711 403.959 49.3982 403.771 48.4273 402.817C48.3213 402.662 48.5089 402.295 48.4273 402.034V399.685C48.3376 398.657 48.5252 397.58 48.4273 396.553L47.6441 394.987C47.5544 394.742 47.7502 394.391 47.6441 394.204L44.7643 392.14C33.9873 388.143 26.857 381.259 23.3734 371.504C23.3408 371.251 23.3979 370.982 23.3734 370.721C23.8629 365.99 22.5984 362.54 19.5962 360.362C21.2197 360.142 22.5087 357.972 24.6135 359.685C27.1507 361.749 27.6891 374.481 33.9873 368.405C38.303 364.245 35.9371 359.041 33.9547 354.269C33.1225 352.263 31.1564 351.521 31.1319 349.212C31.1074 346.88 33.457 344.416 33.5223 342.067C33.5875 339.808 31.5888 338.584 32.0946 336.08C32.2659 335.24 34.9989 330.934 35.5292 330.803C41.5336 336.268 52.123 340.02 60.2078 337.5C64.5643 336.137 64.1564 329.62 66.1715 328.397C69.8998 326.129 81.4844 326.888 86.2243 325.934C87.3828 325.697 97.2869 321.007 97.8172 320.297C101.888 314.816 88.6718 310.526 86.7954 306.554C90.5237 306.325 94.4315 306.847 98.1435 306.537C101.594 306.244 107.207 304.392 109.867 304.327C113.636 304.237 116.344 305.289 117.74 304.816C119.42 306.374 125.775 310.616 127.089 310.485C131.005 310.077 139.497 295.281 140.966 291.44C147.215 275.11 147.28 256.946 136.903 242.378C142.826 242.362 158.792 247.452 151.001 236.489C146.905 230.731 134.521 223.447 131.519 217.615C130.785 216.196 130.687 215.397 130.589 213.831C130.475 212.012 131.796 207.289 130.475 206.473C130.752 206.384 131.062 206.343 131.413 206.367C132.106 206.588 133.191 206.898 133.762 207.15C138.453 209.948 146.873 217.207 147.068 217.322C147.068 217.322 150.764 219.573 150.984 219.671C152.551 221.106 154.476 222.077 156.467 222.803C158.4 223.675 159.901 224.401 161.949 225.152C161.949 225.152 168.745 227.452 168.998 227.501C168.998 227.501 172.661 228.235 172.914 228.284C172.914 228.284 176.577 229.018 176.829 229.067L179.179 229.85C179.66 229.948 183.095 230.633 183.095 230.633C183.348 230.69 186.366 231.457 187.794 231.416C188.267 231.522 188.896 231.31 189.361 231.416C189.361 231.416 192.86 232.068 193.276 232.199C193.276 232.199 195.414 232.884 195.626 232.982C197.69 234.548 198.824 236.799 199.542 239.246C199.599 239.752 199.509 240.298 199.542 240.812C200.341 245.91 200.162 250.918 199.615 256.024L199.624 256.008ZM187.15 422.572C186.358 418.6 189.695 415.084 189.369 411.871C189.132 409.53 186.432 407.466 185.82 405.174C184.107 398.82 187.81 397.001 188.528 392.181C188.969 389.261 188.3 385.965 188.659 382.923C189.303 377.458 193.554 371.488 190.462 366.072C189.401 364.212 186.636 363.184 186.22 360.884C185.673 357.883 187.541 353.168 187.778 349.946C188.447 340.615 187.044 325.469 185.404 316.342C185.167 315.045 184.05 314.18 183.829 312.426C183.609 310.722 184.082 308.413 185.004 305.754C183.805 306.089 182.614 307.345 181.439 309.547L172.914 318.258C168.541 322.883 164.657 328.291 160.407 332.752C146.766 347.092 128.443 360.126 131.625 383.404C132.946 393.078 155.479 424.97 162.74 433.306C167.007 438.95 172.669 443.314 178.396 447.392C178.6 447.498 178.967 447.286 179.179 447.392C180.868 448.648 182.695 449.692 184.661 450.524C184.89 450.589 185.184 450.475 185.445 450.524C186.448 451.087 187.566 450.997 188.577 450.524C188.838 450.467 189.14 450.598 189.361 450.524L203.091 441.528C204.274 440.01 205.457 438.363 205.799 436.438C205.848 436.193 205.767 435.908 205.799 435.655C206.24 434.79 206.346 434.024 206.126 433.355C205.391 433.844 204.649 434.146 203.915 434.097C199.893 433.852 188.014 426.911 187.141 422.547L187.15 422.572Z" fill="#E9E4DD" fill-opacity="0.1" stroke="#1C1B1B" stroke-width="2"/>
<path d="M203.849 434.106C206.436 428.323 211.6 426.455 215.589 422.36C219.007 418.861 223.592 410.019 228.912 409.791C231.351 409.685 233.603 411.194 235.822 411.137C243.091 410.966 257.979 398.29 264.587 393.853C267.329 392.018 272.615 390.729 273.61 387.157C273.92 386.039 271.22 375.599 270.576 373.658C267.1 363.193 264.049 365.24 268.846 352.72C272.436 343.356 280.382 336.342 279.313 325.787C278.546 318.251 276.311 310.322 276.205 302.223C276.131 296.611 279.664 290.266 279.427 285.045C279.272 281.514 277.069 277.925 276.466 274.638C275.258 268.015 276.09 254.524 268.618 251.172C267.239 250.552 261.389 249.328 261.389 251.351C261.389 254.834 262.009 261.759 261.389 264.654C260.329 269.605 252.472 269.442 249.242 266.628C240.015 258.561 239.99 259.654 228.291 257.052C226.366 256.62 225.053 254.915 222.622 254.817C217.286 254.597 215.565 259.605 209.299 252.566C208.247 251.384 207.676 249.989 207.513 248.529C207.464 248.553 207.415 248.578 207.374 248.627C207.137 256.416 205.032 264.067 202.267 271.31C198.514 281.13 182.744 303.993 183.837 312.443C184.066 314.197 185.183 315.061 185.412 316.358C187.052 325.485 188.455 340.632 187.786 349.963C187.558 353.185 185.689 357.891 186.228 360.901C186.644 363.193 189.409 364.221 190.47 366.089C193.562 371.504 189.312 377.467 188.667 382.94C188.308 385.982 188.969 389.277 188.537 392.198C187.819 397.01 184.115 398.829 185.828 405.191C186.44 407.483 189.14 409.546 189.377 411.887C189.703 415.101 186.358 418.616 187.158 422.589C188.023 426.92 199.762 433.804 203.858 434.13L203.849 434.106Z" fill="#E9E4DD" fill-opacity="0.1" stroke="#1C1B1B" stroke-width="2"/>
<path d="M416.444 268.602C416.183 266.114 413.14 266.106 412.626 264.54C412.128 263.031 412.724 260.918 412.463 259.222C411.99 256.196 405.145 250.298 402.787 246.979C401.514 245.184 400.544 241.563 399.173 240.421C396.97 238.586 385.924 238.104 382.09 237.15C352.761 229.899 350.844 194.508 331.117 176.188C321.491 167.249 306.83 171.303 297.489 178.635C282.478 190.413 267.369 206.612 252.807 219.279C238.22 231.971 230.469 230.478 214.447 237.281C208.752 239.695 205.073 247.811 209.315 252.566C215.581 259.605 217.31 254.597 222.637 254.817C225.069 254.915 226.382 256.62 228.307 257.052C240.014 259.654 240.039 258.569 249.258 266.628C252.488 269.45 260.345 269.613 261.405 264.654C262.025 261.758 261.405 254.833 261.405 251.351C261.405 249.328 267.255 250.551 268.633 251.171C276.106 254.515 275.274 268.006 276.482 274.637C277.077 277.924 279.28 281.513 279.443 285.045C279.68 290.265 276.147 296.611 276.221 302.223C276.327 310.322 278.57 318.242 279.329 325.787C280.398 336.341 272.452 343.364 268.862 352.72C264.065 365.24 267.116 363.193 270.591 373.657C271.236 375.599 273.936 386.039 273.626 387.156C272.631 390.737 267.344 392.018 264.603 393.853C257.995 398.29 243.106 410.965 235.837 411.137C233.618 411.185 231.359 409.685 228.927 409.791C223.608 410.019 219.023 418.853 215.605 422.36C211.616 426.446 206.452 428.314 203.865 434.105C203.89 434.105 203.922 434.105 203.947 434.113C204.673 434.154 205.415 433.861 206.158 433.371C206.386 434.04 206.28 434.807 205.832 435.671C205.799 435.924 205.88 436.21 205.832 436.454C205.53 438.151 204.567 439.635 203.539 441.006C203.596 441.006 203.653 441.022 203.719 441.014C206.517 440.818 207.838 438.958 212.309 439.766C223.233 441.732 222.45 454.782 226.978 461.103C228.014 462.555 233.871 468.363 235.307 469.211C241.662 472.938 245.089 467.677 249.266 477.172C251.493 482.221 250.93 487.212 254.022 491.984C254.895 493.33 262.017 501.396 263.004 501.837C265.28 502.865 267.85 499.447 268.454 501.829C270.037 508.126 255.368 509.414 254.471 512.114C253.027 516.486 258.232 517.848 260.296 520.148C261.528 521.519 261.275 523.998 263.38 524.186C269.245 524.708 274.418 500.524 285.195 506.225C286.614 506.976 287.781 508.892 289.339 509.904C293.206 512.416 303.151 518.982 307.197 518.696C308.364 518.615 310.869 517.807 311.733 517.114C314.801 514.675 316.408 499.366 321.735 494.814C326.793 490.499 331.925 491.788 337.652 491.16C339.545 490.956 341.291 490.034 343.208 489.822C344.741 489.651 348.356 491.609 349.93 489.154C354.278 482.392 338.582 474.341 344.334 469.651C348.763 466.038 357.248 472.425 363.228 470.532C365.039 469.961 371.215 460.842 372.422 458.599C376.004 451.96 372.537 453.575 369.135 449.676C361.817 441.291 369.355 425.329 359.296 416.463C353.911 411.716 355.282 411.936 351.439 407.099C349.498 404.652 342.318 400.476 342.025 397.678C341.69 394.489 346.128 392.132 346.708 389.057C347.874 382.833 342.049 372.116 350.868 368.168C353.332 367.067 356.832 367.328 359.312 366.414C365.21 364.253 361.996 348.389 363.342 343.854C364.28 340.697 372.055 337.336 370.081 330.558C368.89 326.488 353.03 322.973 351.252 318.838C349.604 315.012 353.006 301.758 354.311 297.247C356.979 288.071 366.206 289.817 374.127 286.538C377.203 285.265 381.38 281.66 383.501 281.04C386.014 280.306 388.453 281.065 390.819 280.526C392.565 280.127 393.471 278.308 395.657 278.275C398.129 278.243 399.883 280.526 401.98 280.665C406.181 280.942 416.893 272.908 416.444 268.585V268.602Z" fill="#E9E4DD" fill-opacity="0.1" stroke="#1C1B1B" stroke-width="2"/>
<path d="M387.63 89.1423C390.086 91.6055 405.945 91.8665 410.775 93.7833C419.219 97.1275 419.512 113.082 417.579 120.626C417.008 122.845 415.286 125.789 414.993 127.486C414.658 129.46 417.726 141.621 418.876 143.603C421.152 147.51 425.052 147.51 427.409 149.941C432.06 154.745 424.652 156.058 423.861 159.663C422.759 164.655 434.181 182.967 437.681 187.42C443.497 194.826 460.222 204.451 453.377 215.903C450.334 221 432.777 219.932 426.536 221.163C408.531 224.712 404.199 232.738 382.319 231.017C360.471 229.296 361.385 213.529 354.198 198.864C350.926 192.183 345.158 185.511 340.916 179.272C337.963 174.924 337 169.908 331.893 167.159C321.361 161.499 302.572 164.402 293.484 171.882C283.833 179.818 271.955 190.895 261.92 198.741C262.458 197.469 263.519 189.728 262.205 186.727C261.855 183.342 260.859 179.28 260.908 175.944C260.949 173.04 262.54 168.326 262.05 165.822C261.243 161.727 250.425 154.892 248.475 151.156C248.165 150.553 247.814 149.133 248.084 148.815C248.353 148.497 254.235 146.996 255.948 146.099C264.367 141.678 271.228 130.276 274.296 121.401C276.939 113.767 274.141 104.762 267.598 99.9496C265.159 98.1552 250.98 91.5974 248.279 91.059C241.663 89.7458 230.078 101.247 223.552 104.338C217.857 107.029 211.396 107.91 205.522 110.578C195.683 115.039 186.562 125.096 175.459 126.695C169.634 127.535 154.289 127.535 148.464 126.695C134.905 124.737 135.565 116.891 144.368 108.922C150.185 103.645 156.508 103.587 162.985 100.137C181.929 90.0721 184.319 79.33 192.608 61.6548C194.027 58.6369 196.956 51.9568 200.684 51.8589C206.379 51.7039 210.042 56.7365 217.515 52.128C218.608 51.451 233.309 35.9945 234.329 34.4937C238.383 28.5313 236.279 20.75 246.134 21.1904C249.291 21.3291 254.39 23.4171 256.731 25.5052C258.583 27.161 262.638 34.5181 264.922 34.3469C266.138 34.2571 272.811 23.6537 274.777 21.7124C278.824 17.7239 284.298 15.5216 288.72 12.1693C294.822 7.55273 301.324 -2.21877 309.972 0.456569C311.114 0.807299 313.39 2.65067 313.716 3.80074C314.345 6.02746 311.359 19.0942 311.432 23.1806C311.497 26.7205 312.835 30.1381 316.768 30.4562C320.904 30.7906 324.901 29.4774 329.69 31.6144C332.423 32.8297 332.448 36.0026 335.54 36.7204C340.051 37.7644 343.747 34.8607 348.74 36.8346C351.693 38.001 351.921 40.6192 354.279 42.2587C357.02 44.1591 361.932 44.102 363.938 45.9128C365.595 47.4136 365.342 51.0351 367.642 51.6631C369.111 52.0628 371.175 50.978 372.929 50.9453C377.864 50.8556 390.134 49.7545 391.35 56.0921C392.566 62.4297 382.759 84.2647 387.63 89.1504V89.1423ZM264.873 109.354C254.61 94.9905 233.97 111.834 222.785 117.274C209.014 123.971 184.458 134.419 169.438 135.161C167.195 135.275 158.841 136.14 159.322 136.246C161.166 136.344 162.218 136.564 166.673 137.869C173.787 139.957 183.634 137.959 190.364 141.279C190.797 141.466 191.245 141.727 191.686 142.037C193.685 143.334 195.324 145.226 196.418 148.032C195.757 149.133 195.365 148.946 194.802 148.799C192.02 148.668 207.66 150.618 210.907 150.781C225.094 151.507 247.219 147.975 258.526 138.913C267.051 132.078 271.734 118.954 264.873 109.354Z" fill="#E9E4DD" stroke="#1C1B1B" stroke-width="2"/>
<path d="M262.205 186.735C261.854 183.35 260.859 179.288 260.908 175.952C260.949 173.048 262.54 168.334 262.05 165.83C261.242 161.735 250.425 154.9 248.475 151.165C248.165 150.569 247.83 149.199 248.075 148.848C243.498 150.21 239.55 153.081 234.948 154.484C232.264 155.308 223.095 156.385 220.647 157.029C221.928 157.339 223.037 157.739 223.021 158.228L208.581 171.956C207.284 173.97 207.349 176.23 206.925 178.57C206.925 178.579 206.925 178.587 206.925 178.595C206.599 180.381 205.979 182.216 204.249 184.043C200.847 187.624 194.508 188.962 192.836 191.719C192.722 191.931 192.615 192.135 192.534 192.347C192.004 194.027 193.129 196.237 197.266 199.631C204.6 205.65 208.206 205.332 213.264 214.94C216.805 221.653 217.368 225.927 215.458 228.178C218.502 226.392 219.342 226.253 221.21 225.266C232.656 219.222 261.83 199.296 261.92 198.741C262.458 197.469 263.519 189.729 262.205 186.727V186.735Z" fill="#E9E4DD" stroke="#1C1B1B" stroke-width="2"/>
</g>
<defs>
<clipPath id="clip0_326_6413">
<rect width="455" height="524.186" fill="white"/>
</clipPath>
</defs>
</svg>
