<svg width="455" height="525" viewBox="0 0 455 525" fill="none" xmlns="http://www.w3.org/2000/svg">
<g clip-path="url(#clip0_1159_223)">
<path d="M146.57 205.48C138.11 210.01 128.75 204.84 124.09 197.4C117.31 186.58 120.7 174.83 116.43 164.58C112.82 155.93 103.07 150.04 106.84 138.5C108.51 133.39 114.53 133.9 117.36 129.53C117.61 129.15 117.87 128.68 118.15 128.17C119.45 126.21 120.53 124.08 121.59 122C123.09 119.04 124.5 116.24 126.39 114.22C127.36 113.18 127.79 111.64 127.63 109.76C127.35 106.53 125.33 102.66 123.77 101.5C122.88 100.83 121.12 100.55 118.34 100.16C116.9 99.9599 114.75 99.6599 114.28 99.3999C114.21 99.0699 114.12 98.2799 114.04 97.6299C113.67 94.5399 113.25 91.6699 112.25 90.1999C120.2 83.3499 148.68 88.5399 155.58 90.6699C157.1 92.6899 146.04 96.5099 144.61 97.2999C133.47 102.42 130.99 110.14 131.36 121.52C133.27 139.12 154.85 133.51 166.27 138.97C176.04 141.89 191.25 136.96 195.55 148.95C183.29 148.85 173.88 143.92 161.56 148.68C114.11 170.06 166.6 195.11 146.59 205.5L146.57 205.48ZM201.68 184.51C203.44 183.45 204.8 181.64 205.17 180.72C206.38 177.73 205.64 174.68 207.58 171.52C208.05 170.75 218.64 160.97 220.79 158.93C220.96 158.77 220.9 158.49 220.68 158.41C219.96 158.13 219.58 157.71 219.32 157.03C219.28 156.93 219.19 156.84 219.08 156.82C208.73 154.79 197.55 154.52 187.28 156.39C181.76 156.64 175.34 155.76 170.02 156.37C160.83 157.41 147.87 170.51 149.32 180.19C150.2 186.06 156.51 188.68 157.55 193.9C159.17 202.02 151.5 208.39 159.82 215.05C159.84 215.06 159.85 215.08 159.87 215.09C169.11 220.25 203.8 232.94 214.24 229.19C218.84 225.09 211.33 212.13 205.48 206.85C204.33 205.81 200.54 203.49 199.74 202.91C186.92 193.59 189.32 191.95 201.68 184.52V184.51Z" fill="#E9E4DD" fill-opacity="0.1"/>
<path d="M115.65 170.05C112.37 159.65 101.06 148.36 105.09 137.6C107.09 132.25 111.5 132.33 115.03 129.02C116.95 126.72 118.4 123.87 119.8 121.1C121.36 118.01 122.84 115.09 124.93 112.85C125.64 112.09 125.71 110.89 125.64 109.99C125.62 109.8 125.6 109.61 125.57 109.41C125.17 106.76 123.54 103.82 122.57 103.09C122.03 102.68 119.73 102.36 118.06 102.13C114.89 101.68 113.2 101.41 112.57 100.48C112.32 100.11 112.25 99.59 112.05 97.85C111.86 96.21 111.53 93.43 110.94 91.94C107.8 94.09 103.78 97.15 100.07 95.24C99.38 94.43 101.3 87.12 96.68 87.61C92.29 88.08 69.9 101.84 66.69 105.46C59.29 113.79 66.28 118.2 68.33 125.81C69.91 131.69 72.99 150.78 73.31 156.89C73.46 159.54 73.19 162.71 69.86 162.71C65.9 162.71 65.96 157.77 63.61 155.57C61.39 153.5 57.37 153.29 55.09 151.56C52.8 149.83 53.08 146.6 50.37 146.98C47.57 147.37 42.11 152.76 39.16 154.65C36.52 156.33 33.96 156.36 31.45 158.68C25.74 163.95 25.43 176.15 32.4 180.5H32.38C34.91 182.08 38.07 182.38 40.71 183.06C45.7 181.44 44.49 181.47 49.95 186.21C52.89 188.92 54.19 190.46 57.52 190.51C76.04 196.23 104.51 202.9 108.28 215.8C111.72 212.38 116.57 212.28 120.72 210.61C122.04 210.05 127.67 206.7 129.56 205.67C117.22 198.69 119.51 182.08 115.65 170.05Z" fill="#E9E4DD"/>
<path d="M22.23 270.13C22.53 264.7 26.2 257.01 27.65 257.06C30.21 256.3 29.4 259.68 31.42 260.33C37.07 263.83 33.87 273.11 35.51 278.22C36.57 279.7 39.16 284.56 41.28 284.41C42.24 284.17 43.04 282.17 43.68 280.57C45.3 273.24 55.98 276.86 52.6 266.8C54.88 265.86 57.16 266.8 58.45 267.99C64.61 271.87 76.8 266.45 83.25 269.13C86.89 269.47 98.85 283.6 101.18 279.81C100.83 274.97 95.49 260.56 102.86 263.93C120.4 277.03 109.59 274.29 108.79 284.15C111.79 288.51 117.06 293.17 116.92 299.21C117.32 301.54 117.46 303.2 118.62 304.51C120.41 306.01 125.85 309.52 126.92 309.6C129.95 309.28 138.17 295.76 139.92 291.19C146.77 273.33 145.37 256.23 135.98 243.07L134.85 241.49H136.79C138.23 241.51 140.09 241.75 142.1 242.02C145.64 242.51 150.98 243.25 151.87 241.79C152.08 241.45 152.32 240.31 150.09 237.17C148.29 234.64 144.65 231.66 141.13 228.78C136.77 225.21 132.26 221.52 130.53 218.17C129.73 216.62 129.6 215.71 129.49 213.99C129.44 213.24 129.62 212.17 129.81 211.05C129.98 210.08 130.26 208.39 130.15 207.64C127.29 209.25 122.91 211.86 121.5 212.46C116.87 214.31 111.13 214.37 108.26 218.96C106.04 216.98 105.71 214.11 104.22 211.79C103.52 208.86 75.12 196.08 53.77 191.8C51.65 191.07 46.39 185.11 44.24 184.08C43.83 184.17 42.7 184.51 41.73 184.84C31.92 190.68 31.73 192.09 34.73 202.29C35.06 206.41 33.06 207.14 36.25 211.9C41.85 220.26 51.89 212.79 55.38 223.69C37.06 222.23 21.34 208.63 19.75 236.99C18.52 239.77 6.79998 246.58 3.70998 250.7C-2.75002 258.12 -0.71002 271.68 10.01 269.41C10.73 269.98 10.68 271.43 10.94 272.47C15.72 272.47 22.91 276.19 22.26 270.14L22.23 270.13Z" fill="#E9E4DD"/>
<path d="M18.59 360.08C27 352.97 26.38 366.12 30.59 369.12C36.93 367.56 35.67 360.29 33.09 355.22C32.31 352.95 30.03 352.2 30 349.34C29.9 346.09 33.84 343.12 31.74 339.98C31.22 338.91 30.64 337.7 30.98 336C31.3 335.04 33.99 329.79 35.67 329.82C41.24 335.08 51.53 339.19 59.77 336.66C63.46 335.61 62.85 329.52 65.51 327.66C69.22 325.27 80.73 326.02 85.88 325.07C87.33 324.09 98.06 321.01 97.42 317.96C96.23 313.55 86.29 310.54 85.12 305.77C89.36 305.36 93.71 305.97 97.92 305.66C103.54 304.78 110.46 302.44 115.9 304C113.78 290.8 112.95 294.03 106.79 284.46C106.34 273.86 118.9 277.66 101.18 265.36C100.11 268.03 103.16 276.86 103.16 279.87C100.44 289.13 87.59 272.28 82.59 271.02C74.82 268.76 61.91 274.43 54.96 268.4C56.61 278.61 47.4 274.56 45.52 281.31C42.51 291.13 36.46 284.47 33.59 278.84C31.74 274.03 35.08 265.5 30.27 261.99C29.31 261.36 28.14 260.48 27.94 259.28C20.27 270.3 30.69 278.27 11.6 274.59C14.2 284.32 13.15 285.4 8.52998 293.13C7.80998 296.44 6.49998 309.32 6.76998 312.58C7.23998 318.41 10.55 317.84 11.88 320.77C14.25 325.98 8.58998 331.78 7.77998 336.99C6.10998 346.29 8.50998 356.8 18.35 360.28C18.43 360.22 18.5 360.17 18.59 360.1V360.08Z" fill="#E9E4DD"/>
<path d="M202.73 441.77C198.71 443.61 188.39 453.14 185.28 451.03C176.55 447.2 168.46 440.89 162.58 433.42C105.32 363.87 136.04 363.38 182.83 307.32C184.44 321.39 187.86 336.33 186.62 350.01C186.36 353.31 184.48 358.03 185.07 361.2C189.29 368.48 192.57 366.82 188.94 377.3C185.96 383.37 189.16 390.58 185.88 396.35C182.29 402.15 185.08 406.42 188.21 412.11C188.25 415.6 185.08 418.98 186.01 422.91C187.05 427.9 199.45 435.01 203.78 435.26C203.93 435.48 204.08 435.92 204.08 436.66C203.84 438.37 203.23 440.33 202.72 441.78L202.73 441.77ZM199.39 240.92C198.92 230.41 189.8 232.37 182.94 230.74C181.76 230.54 178.03 229.78 176.67 229.17C172.17 228.45 165.84 226.85 161.79 225.25C156.51 223.46 151.48 220.42 146.91 217.42C146.55 217.39 136.88 208.26 131.94 206.68C132.35 207.86 132.04 209.69 131.76 211.37C131.6 212.33 131.43 213.33 131.46 213.85C131.56 215.37 131.65 216.01 132.28 217.24C133.81 220.22 138.16 223.78 142.36 227.22C146.15 230.32 149.73 233.25 151.68 236C153.89 239.11 154.48 241.27 153.54 242.81C151.97 245.39 146.8 244.67 141.79 243.98C140.71 243.83 139.66 243.69 138.73 243.59C147.33 256.93 148.46 274.4 141.76 291.89C140.63 294.85 131.84 311.07 127.05 311.57C127.01 311.57 126.97 311.57 126.93 311.57C125.14 311.57 119.65 307.88 117.33 305.95C114.96 306.19 112.54 305.3 109.75 305.44C103.16 306.71 95.5499 308.43 88.6899 307.61C104.43 317.95 102.11 320.98 86.2799 327.03C81.4699 328 70.0599 327.27 66.5499 329.37C64.6099 332.01 64.7599 337.29 60.3699 338.57C51.9799 341.19 41.4999 337.37 35.4399 332.29C28.8999 340.96 38.0699 336.18 31.9899 349.32C32.0999 351.39 34.3599 352.36 34.9299 354.46C38.0399 359.84 38.7599 369.63 30.8499 371.16C25.0199 371.81 26.7399 356.27 20.3599 361.26C22.9399 363.51 23.6099 367.4 23.2099 371.62C27.1999 383.89 36.2499 388.1 47.4799 394.32C47.9999 394.61 48.2299 396.08 48.2599 396.67C48.4899 401 46.9999 405.44 53.7399 402.93C57.9199 401.37 62.1899 410.57 64.7799 415.39C67.5399 422.84 71.2099 426.99 78.7999 422.49C80.7399 419.83 83.2199 422.03 83.4999 425.62C85.1299 427.46 87.4599 428.19 89.7699 428.75C93.6399 428.65 102.14 427.93 94.2699 433.51C89.8199 436.21 82.7999 440.52 85.8699 445.96C85.5699 446.85 86.9499 448.04 87.4399 448.31C87.9299 448.58 89.4399 448.68 89.7899 448.31C95.4199 442.37 102.18 445.5 105.45 455.36C108.45 458.59 111.55 463.28 115.63 464.75C116.22 465.15 125.28 467.77 126.6 468.66C132.68 472.3 137.34 479.77 144.61 481.96C144.61 481.96 162.47 493.14 164.97 493.71C173.42 495.61 180.14 486.47 182.19 476.49C182.68 473.55 182.23 466.99 181.41 465.53C175.46 455.05 168.15 446.15 160.27 437.36C142.93 422.55 123.71 397.23 120.44 374.25C118.32 333.36 171.06 328.85 184.53 294.9C190.18 282.34 197.05 269.77 199.49 256.11V256.13C200.03 251.02 200.21 246.02 199.41 240.92H199.39Z" fill="#E9E4DD"/>
<path d="M185.94 315.2C189.09 329.39 189.51 347.01 187.06 360.83C192.56 367.12 193.95 369.43 190.86 377.9C187.95 384.09 191.22 391.39 187.7 397.22C183.9 403.35 188.17 406.28 190.23 411.9C190.58 415.5 187.28 418.88 188 422.5C188.72 426.11 199.18 432.5 203.4 433.19L203.62 433.13C204.95 427.65 211.31 425.72 214.73 421.77C218.63 417.57 223.01 409.09 228.73 408.9C241.88 414.37 254.63 397.71 266.87 391.54C269.24 390.4 271.92 389.1 272.51 387C272.16 383.16 269.14 371.63 266.94 367.89C259.37 355.7 279.93 339.5 278.18 326C275.04 308.22 273.99 302.98 278.29 285.2C277.51 279.87 274.61 275.27 274.71 269.54C274.31 260.67 271.94 249.59 262.25 251.53C262.27 255.35 262.87 262.03 262.23 264.98C261.01 270.79 252.07 270.74 248.45 267.5C240.81 260.82 239.71 260.6 232.53 259.12C229.21 258.95 225.67 256.85 222.45 255.93C216.41 256.83 212.51 259.99 207.08 251.48C207.45 274.64 179.88 298.89 185.96 315.21L185.94 315.2Z" fill="#E9E4DD" fill-opacity="0.1"/>
<path d="M415.03 268.645V268.665C412.25 263.065 410.55 268.595 411.05 259.285C410.58 256.255 403.73 250.365 401.37 247.045C400.1 245.255 399.13 241.625 397.76 240.485C395.56 238.645 384.51 238.165 380.68 237.215C342.96 230.805 343.13 145.345 296.08 178.695C281.07 190.475 265.96 206.675 251.4 219.335C238.04 234.845 208.08 230.635 206.08 247.385C207.74 252.615 213.22 257.105 216.58 254.775C217.88 254.315 219.36 253.805 221.26 253.885C224.94 254.585 228.1 256.985 231.66 257.105C239.12 258.645 240.46 258.915 248.49 265.935C258.21 271.155 260.27 264.765 259.1 255.425C257.46 247.725 263.26 248.845 267.62 250.315C277.17 254.945 273.64 269.925 277.34 278.645C281.56 286.265 276.11 294.495 275.79 302.265C275.89 310.175 278.1 318.015 278.89 325.745C281.11 339.565 260.71 354.915 267.47 366.975C269.64 371.195 273 381.895 273.16 387.485C270.25 393.555 262.88 393.885 258 398.895C248.81 405.075 239.31 414.415 230.86 411.495C225.37 408.995 221.8 414.285 218.14 419.085C214.52 425.075 208.31 427.195 204.4 432.645C204.52 432.885 204.63 432.965 204.74 433.425C205.19 435.275 204.91 437.875 204 440.735C218.87 434.585 221.04 453.005 225.55 461.155C226.59 462.605 232.44 468.415 233.88 469.265C240.23 472.995 243.66 467.735 247.84 477.225C250.95 489.075 251.79 493.415 261.58 501.885C263.85 502.915 266.42 499.495 267.03 501.885C268.61 508.185 253.94 509.465 253.05 512.165C251.61 516.535 256.81 517.895 258.88 520.195C260.11 521.565 259.86 524.045 261.96 524.235C268.99 523.475 275.38 494.245 287.92 509.955C318.35 529.735 307.34 512.805 320.32 494.865C326.95 489.455 334.47 492.725 341.79 489.875C343.32 489.705 346.94 491.665 348.51 489.205C352.86 482.445 337.16 474.395 342.91 469.705C347.34 466.095 355.82 472.475 361.8 470.585C363.61 470.015 369.79 460.895 370.99 458.655C374.57 452.015 371.1 453.635 367.7 449.735C360.38 441.345 367.92 425.385 357.86 416.525C352.47 411.775 353.85 411.995 350 407.165C348.06 404.715 340.88 400.545 340.59 397.745C340.25 394.555 344.69 392.195 345.27 389.125C346.44 382.905 340.61 372.185 349.43 368.235C351.89 367.135 355.39 367.395 357.87 366.485C363.77 364.325 360.55 348.465 361.9 343.925C362.84 340.765 370.61 337.405 368.64 330.625C367.45 326.555 351.59 323.035 349.81 318.905C348.16 315.075 351.56 301.825 352.87 297.315C355.54 288.135 364.76 289.885 372.69 286.605C379.56 282.685 381.55 280.125 389.38 280.595C395.13 276.945 394.63 278.535 400.54 280.735C404.74 281.015 415.45 272.975 415 268.655L415.03 268.645Z" fill="#E9E4DD" fill-opacity="0.1"/>
<path d="M453.23 216.01C450.19 221.11 432.63 220.04 426.39 221.27C408.38 224.82 404.05 232.85 382.17 231.12C360.32 229.4 361.24 213.63 354.05 198.97C350.78 192.29 345.01 185.62 340.77 179.38C334.76 159.56 306.94 161.51 293.34 171.99C284.12 179.57 272.87 190.01 263.14 197.77C264.88 190.58 261.9 183.04 261.77 176.07C261.83 173.15 263.44 168.46 262.89 165.74C262.25 160.38 248.94 154.62 248.91 148.53C261.71 146.25 270.05 132.94 274.15 121.5C280 103.59 261.6 95.6602 248.13 91.1602C241.51 89.8502 229.93 101.35 223.4 104.44C217.7 107.13 211.24 108.01 205.37 110.68C195.53 115.14 186.41 125.2 175.31 126.8C163.07 128.22 122.04 130.03 144.22 109.03C174.67 93.6302 178.88 94.8202 192.46 61.7602C193.88 58.7402 196.81 52.0602 200.54 51.9702C206.24 51.8102 209.9 56.8502 217.37 52.2402C218.46 51.5602 233.16 36.1102 234.18 34.6102C238.23 28.6502 236.13 20.8702 245.99 21.3102C249.15 21.4502 254.25 23.5402 256.59 25.6202C267.62 40.8202 264.1 33.5502 274.64 21.8302C278.69 17.8402 284.16 15.6402 288.58 12.2902C294.95 6.9902 306.15 -6.6498 313.58 3.9202C315.03 9.2202 305.77 28.7702 316.63 30.5802C320.77 30.9102 324.76 29.6002 329.55 31.7402C332.28 32.9602 332.31 36.1302 335.4 36.8502C344.37 37.5802 347.29 32.9402 354.14 42.3902C356.88 44.2902 361.79 44.2302 363.8 46.0402C365.46 47.5402 365.2 51.1602 367.5 51.7902C410.52 45.6802 380.5 69.7302 387.49 89.2802C389.95 91.7402 405.81 92.0002 410.64 93.9102C419.08 97.2502 419.38 113.21 417.44 120.75C416.87 122.97 415.15 125.91 414.85 127.61C414.51 129.58 417.58 141.75 418.73 143.73C421.01 147.64 424.91 147.64 427.26 150.07C431.91 154.87 424.5 156.19 423.71 159.79C422.61 164.78 434.03 183.09 437.53 187.55C443.35 194.96 460.07 204.58 453.23 216.03V216.01ZM264.72 109.46C254.46 95.1002 233.82 111.94 222.63 117.38C206.82 125.65 182.23 134.48 163.88 136.09C164.78 136.4 165.74 136.71 166.82 137.03C169.8 137.9 173.27 138.03 176.94 138.17C184.8 138.46 193.7 138.8 197.22 147.79L198.06 149.59C224.07 154.6 281.35 145.92 264.72 109.45V109.46Z" fill="#E9E4DD" fill-opacity="0.1"/>
<path d="M260.46 199.74C262.31 196.3 261.61 187.77 260.51 183.09C258.83 177.58 260.83 171.39 260.92 166.13C259.58 161.06 246.94 155.28 246.95 149.29C239.28 153.06 232.52 155.67 223.52 156.66C223.19 156.7 223.04 157.11 223.31 157.31C223.75 157.65 223.99 158.12 223.86 158.78L209.55 172.38C209.33 172.59 209.14 172.84 209.01 173.13C207.21 177.16 208.7 180.92 204.83 184.84C202.35 187.87 196.97 189.04 194.29 191.61C193.91 191.98 193.31 193.02 193.67 194.07C196.56 202.47 217.83 206.38 217.3 227.18C228.92 221.9 253.58 204.8 260.61 199.8L260.47 199.74H260.46Z" fill="#E9E4DD" fill-opacity="0.1"/>
</g>
<defs>
<clipPath id="clip0_1159_223">
<rect width="454.84" height="524.29" fill="white"/>
</clipPath>
</defs>
</svg>
