<svg width="455" height="525" viewBox="0 0 455 525" fill="none" xmlns="http://www.w3.org/2000/svg">
<g clip-path="url(#clip0_1159_279)">
<path d="M146.57 205.48C138.11 210.01 128.75 204.84 124.09 197.4C117.31 186.58 120.7 174.83 116.43 164.58C112.82 155.93 103.07 150.04 106.84 138.5C108.51 133.39 114.53 133.9 117.36 129.53C117.61 129.15 117.87 128.68 118.15 128.17C119.45 126.21 120.53 124.08 121.59 122C123.09 119.04 124.5 116.24 126.39 114.22C127.36 113.18 127.79 111.64 127.63 109.76C127.35 106.53 125.33 102.66 123.77 101.5C122.88 100.83 121.12 100.55 118.34 100.16C116.9 99.9599 114.75 99.6599 114.28 99.3999C114.21 99.0699 114.12 98.2799 114.04 97.6299C113.67 94.5399 113.25 91.6699 112.25 90.1999C120.2 83.3499 148.68 88.5399 155.58 90.6699C157.1 92.6899 146.04 96.5099 144.61 97.2999C133.47 102.42 130.99 110.14 131.36 121.52C133.27 139.12 154.85 133.51 166.27 138.97C176.04 141.89 191.25 136.96 195.55 148.95C183.29 148.85 173.88 143.92 161.56 148.68C114.11 170.06 166.6 195.11 146.59 205.5L146.57 205.48ZM201.68 184.51C203.44 183.45 204.8 181.64 205.17 180.72C206.38 177.73 205.64 174.68 207.58 171.52C208.05 170.75 218.64 160.97 220.79 158.93C220.96 158.77 220.9 158.49 220.68 158.41C219.96 158.13 219.58 157.71 219.32 157.03C219.28 156.93 219.19 156.84 219.08 156.82C208.73 154.79 197.55 154.52 187.28 156.39C181.76 156.64 175.34 155.76 170.02 156.37C160.83 157.41 147.87 170.51 149.32 180.19C150.2 186.06 156.51 188.68 157.55 193.9C159.17 202.02 151.5 208.39 159.82 215.05C159.84 215.06 159.85 215.08 159.87 215.09C169.11 220.25 203.8 232.94 214.24 229.19C218.84 225.09 211.33 212.13 205.48 206.85C204.33 205.81 200.54 203.49 199.74 202.91C186.92 193.59 189.32 191.95 201.68 184.52V184.51Z" fill="#E9E4DD"/>
<path d="M115.65 170.05C112.37 159.65 101.06 148.36 105.09 137.6C107.09 132.25 111.5 132.33 115.03 129.02C116.95 126.72 118.4 123.87 119.8 121.1C121.36 118.01 122.84 115.09 124.93 112.85C125.64 112.09 125.71 110.89 125.64 109.99C125.62 109.8 125.6 109.61 125.57 109.41C125.17 106.76 123.54 103.82 122.57 103.09C122.03 102.68 119.73 102.36 118.06 102.13C114.89 101.68 113.2 101.41 112.57 100.48C112.32 100.11 112.25 99.59 112.05 97.85C111.86 96.21 111.53 93.43 110.94 91.94C107.8 94.09 103.78 97.15 100.07 95.24C99.38 94.43 101.3 87.12 96.68 87.61C92.29 88.08 69.9 101.84 66.69 105.46C59.29 113.79 66.28 118.2 68.33 125.81C69.91 131.69 72.99 150.78 73.31 156.89C73.46 159.54 73.19 162.71 69.86 162.71C65.9 162.71 65.96 157.77 63.61 155.57C61.39 153.5 57.37 153.29 55.09 151.56C52.8 149.83 53.08 146.6 50.37 146.98C47.57 147.37 42.11 152.76 39.16 154.65C36.52 156.33 33.96 156.36 31.45 158.68C25.74 163.95 25.43 176.15 32.4 180.5H32.38C34.91 182.08 38.07 182.38 40.71 183.06C45.7 181.44 44.49 181.47 49.95 186.21C52.89 188.92 54.19 190.46 57.52 190.51C76.04 196.23 104.51 202.9 108.28 215.8C111.72 212.38 116.57 212.28 120.72 210.61C122.04 210.05 127.67 206.7 129.56 205.67C117.22 198.69 119.51 182.08 115.65 170.05Z" fill="#E9E4DD"/>
<path d="M22.2305 270.13C22.5305 264.7 26.2005 257.01 27.6505 257.06C30.2105 256.3 29.4005 259.68 31.4205 260.33C37.0705 263.83 33.8705 273.11 35.5105 278.22C36.5705 279.7 39.1605 284.56 41.2805 284.41C42.2405 284.17 43.0405 282.17 43.6805 280.57C45.3005 273.24 55.9805 276.86 52.6005 266.8C54.8805 265.86 57.1605 266.8 58.4505 267.99C64.6105 271.87 76.8005 266.45 83.2505 269.13C86.8905 269.47 98.8505 283.6 101.18 279.81C100.83 274.97 95.4905 260.56 102.86 263.93C120.4 277.03 109.59 274.29 108.79 284.15C111.79 288.51 117.06 293.17 116.92 299.21C117.32 301.54 117.46 303.2 118.62 304.51C120.41 306.01 125.85 309.52 126.92 309.6C129.95 309.28 138.17 295.76 139.92 291.19C146.77 273.33 145.37 256.23 135.98 243.07L134.85 241.49H136.79C138.23 241.51 140.09 241.75 142.1 242.02C145.64 242.51 150.98 243.25 151.87 241.79C152.08 241.45 152.32 240.31 150.09 237.17C148.29 234.64 144.65 231.66 141.13 228.78C136.77 225.21 132.26 221.52 130.53 218.17C129.73 216.62 129.6 215.71 129.49 213.99C129.44 213.24 129.62 212.17 129.81 211.05C129.98 210.08 130.26 208.39 130.15 207.64C127.29 209.25 122.91 211.86 121.5 212.46C116.87 214.31 111.13 214.37 108.26 218.96C106.04 216.98 105.71 214.11 104.22 211.79C103.52 208.86 75.1205 196.08 53.7705 191.8C51.6505 191.07 46.3905 185.11 44.2405 184.08C43.8305 184.17 42.7005 184.51 41.7305 184.84C31.9205 190.68 31.7305 192.09 34.7305 202.29C35.0605 206.41 33.0605 207.14 36.2505 211.9C41.8505 220.26 51.8905 212.79 55.3805 223.69C37.0605 222.23 21.3405 208.63 19.7505 236.99C18.5205 239.77 6.80047 246.58 3.71047 250.7C-2.74953 258.12 -0.709532 271.68 10.0105 269.41C10.7305 269.98 10.6805 271.43 10.9405 272.47C15.7205 272.47 22.9105 276.19 22.2605 270.14L22.2305 270.13Z" fill="#E9E4DD" fill-opacity="0.1"/>
<path d="M18.5905 360.08C27.0005 352.97 26.3805 366.12 30.5905 369.12C36.9305 367.56 35.6705 360.29 33.0905 355.22C32.3105 352.95 30.0305 352.2 30.0005 349.34C29.9005 346.09 33.8405 343.12 31.7405 339.98C31.2205 338.91 30.6405 337.7 30.9805 336C31.3005 335.04 33.9905 329.79 35.6705 329.82C41.2405 335.08 51.5305 339.19 59.7705 336.66C63.4605 335.61 62.8505 329.52 65.5105 327.66C69.2205 325.27 80.7305 326.02 85.8805 325.07C87.3305 324.09 98.0605 321.01 97.4205 317.96C96.2305 313.55 86.2905 310.54 85.1205 305.77C89.3605 305.36 93.7105 305.97 97.9205 305.66C103.54 304.78 110.46 302.44 115.9 304C113.78 290.8 112.95 294.03 106.79 284.46C106.34 273.86 118.9 277.66 101.18 265.36C100.11 268.03 103.16 276.86 103.16 279.87C100.44 289.13 87.5905 272.28 82.5905 271.02C74.8205 268.76 61.9105 274.43 54.9605 268.4C56.6105 278.61 47.4005 274.56 45.5205 281.31C42.5105 291.13 36.4605 284.47 33.5905 278.84C31.7405 274.03 35.0805 265.5 30.2705 261.99C29.3105 261.36 28.1405 260.48 27.9405 259.28C20.2705 270.3 30.6905 278.27 11.6005 274.59C14.2005 284.32 13.1505 285.4 8.53047 293.13C7.81047 296.44 6.50047 309.32 6.77047 312.58C7.24047 318.41 10.5505 317.84 11.8805 320.77C14.2505 325.98 8.59047 331.78 7.78047 336.99C6.11047 346.29 8.51047 356.8 18.3505 360.28C18.4305 360.22 18.5005 360.17 18.5905 360.1V360.08Z" fill="#E9E4DD" fill-opacity="0.1"/>
<path d="M202.73 441.77C198.71 443.61 188.39 453.14 185.28 451.03C176.55 447.2 168.46 440.89 162.58 433.42C105.32 363.87 136.04 363.38 182.83 307.32C184.44 321.39 187.86 336.33 186.62 350.01C186.36 353.31 184.48 358.03 185.07 361.2C189.29 368.48 192.57 366.82 188.94 377.3C185.96 383.37 189.16 390.58 185.88 396.35C182.29 402.15 185.08 406.42 188.21 412.11C188.25 415.6 185.08 418.98 186.01 422.91C187.05 427.9 199.45 435.01 203.78 435.26C203.93 435.48 204.08 435.92 204.08 436.66C203.84 438.37 203.23 440.33 202.72 441.78L202.73 441.77ZM199.39 240.92C198.92 230.41 189.8 232.37 182.94 230.74C181.76 230.54 178.03 229.78 176.67 229.17C172.17 228.45 165.84 226.85 161.79 225.25C156.51 223.46 151.48 220.42 146.91 217.42C146.55 217.39 136.88 208.26 131.94 206.68C132.35 207.86 132.04 209.69 131.76 211.37C131.6 212.33 131.43 213.33 131.46 213.85C131.56 215.37 131.65 216.01 132.28 217.24C133.81 220.22 138.16 223.78 142.36 227.22C146.15 230.32 149.73 233.25 151.68 236C153.89 239.11 154.48 241.27 153.54 242.81C151.97 245.39 146.8 244.67 141.79 243.98C140.71 243.83 139.66 243.69 138.73 243.59C147.33 256.93 148.46 274.4 141.76 291.89C140.63 294.85 131.84 311.07 127.05 311.57C127.01 311.57 126.97 311.57 126.93 311.57C125.14 311.57 119.65 307.88 117.33 305.95C114.96 306.19 112.54 305.3 109.75 305.44C103.16 306.71 95.5504 308.43 88.6904 307.61C104.43 317.95 102.11 320.98 86.2803 327.03C81.4703 328 70.0604 327.27 66.5504 329.37C64.6104 332.01 64.7603 337.29 60.3703 338.57C51.9804 341.19 41.5003 337.37 35.4403 332.29C28.9003 340.96 38.0704 336.18 31.9904 349.32C32.1004 351.39 34.3604 352.36 34.9304 354.46C38.0404 359.84 38.7604 369.63 30.8504 371.16C25.0204 371.81 26.7404 356.27 20.3604 361.26C22.9404 363.51 23.6104 367.4 23.2104 371.62C27.2003 383.89 36.2504 388.1 47.4804 394.32C48.0004 394.61 48.2303 396.08 48.2603 396.67C48.4903 401 47.0004 405.44 53.7404 402.93C57.9204 401.37 62.1903 410.57 64.7803 415.39C67.5403 422.84 71.2104 426.99 78.8004 422.49C80.7404 419.83 83.2204 422.03 83.5004 425.62C85.1303 427.46 87.4604 428.19 89.7703 428.75C93.6404 428.65 102.14 427.93 94.2703 433.51C89.8204 436.21 82.8004 440.52 85.8704 445.96C85.5704 446.85 86.9504 448.04 87.4404 448.31C87.9304 448.58 89.4404 448.68 89.7904 448.31C95.4203 442.37 102.18 445.5 105.45 455.36C108.45 458.59 111.55 463.28 115.63 464.75C116.22 465.15 125.28 467.77 126.6 468.66C132.68 472.3 137.34 479.77 144.61 481.96C144.61 481.96 162.47 493.14 164.97 493.71C173.42 495.61 180.14 486.47 182.19 476.49C182.68 473.55 182.23 466.99 181.41 465.53C175.46 455.05 168.15 446.15 160.27 437.36C142.93 422.55 123.71 397.23 120.44 374.25C118.32 333.36 171.06 328.85 184.53 294.9C190.18 282.34 197.05 269.77 199.49 256.11V256.13C200.03 251.02 200.21 246.02 199.41 240.92H199.39Z" fill="#E9E4DD" fill-opacity="0.1"/>
<path d="M185.94 315.2C189.09 329.39 189.51 347.01 187.06 360.83C192.56 367.12 193.95 369.43 190.86 377.9C187.95 384.09 191.22 391.39 187.7 397.22C183.9 403.35 188.17 406.28 190.23 411.9C190.58 415.5 187.28 418.88 188 422.5C188.72 426.11 199.18 432.5 203.4 433.19L203.62 433.13C204.95 427.65 211.31 425.72 214.73 421.77C218.63 417.57 223.01 409.09 228.73 408.9C241.88 414.37 254.63 397.71 266.87 391.54C269.24 390.4 271.92 389.1 272.51 387C272.16 383.16 269.14 371.63 266.94 367.89C259.37 355.7 279.93 339.5 278.18 326C275.04 308.22 273.99 302.98 278.29 285.2C277.51 279.87 274.61 275.27 274.71 269.54C274.31 260.67 271.94 249.59 262.25 251.53C262.27 255.35 262.87 262.03 262.23 264.98C261.01 270.79 252.07 270.74 248.45 267.5C240.81 260.82 239.71 260.6 232.53 259.12C229.21 258.95 225.67 256.85 222.45 255.93C216.41 256.83 212.51 259.99 207.08 251.48C207.45 274.64 179.88 298.89 185.96 315.21L185.94 315.2Z" fill="#E9E4DD" fill-opacity="0.1"/>
<path d="M416.29 268.69V268.71C413.51 263.11 411.81 268.64 412.31 259.33C411.84 256.3 404.99 250.41 402.63 247.09C401.36 245.3 400.39 241.67 399.02 240.53C396.82 238.69 385.77 238.21 381.94 237.26C344.22 230.85 344.39 145.39 297.34 178.74C282.33 190.52 267.22 206.72 252.66 219.38C239.3 234.89 209.34 230.68 207.34 247.43C209 252.66 214.48 257.15 217.84 254.82C219.14 254.36 220.62 253.85 222.52 253.93C226.2 254.63 229.36 257.03 232.92 257.15C240.38 258.69 241.72 258.96 249.75 265.98C259.47 271.2 261.53 264.81 260.36 255.47C258.72 247.77 264.52 248.89 268.88 250.36C278.43 254.99 274.9 269.97 278.6 278.69C282.82 286.31 277.37 294.54 277.05 302.31C277.15 310.22 279.36 318.06 280.15 325.79C282.37 339.61 261.97 354.96 268.73 367.02C270.9 371.24 274.26 381.94 274.42 387.53C271.51 393.6 264.14 393.93 259.26 398.94C250.07 405.12 240.57 414.46 232.12 411.54C226.63 409.04 223.06 414.33 219.4 419.13C215.78 425.12 209.57 427.24 205.66 432.69C205.78 432.93 205.89 433.01 206 433.47C206.45 435.32 206.17 437.92 205.26 440.78C220.13 434.63 222.3 453.05 226.81 461.2C227.85 462.65 233.7 468.46 235.14 469.31C241.49 473.04 244.92 467.78 249.1 477.27C252.21 489.12 253.05 493.46 262.84 501.93C265.11 502.96 267.68 499.54 268.29 501.93C269.87 508.23 255.2 509.51 254.31 512.21C252.87 516.58 258.07 517.94 260.14 520.24C261.37 521.61 261.12 524.09 263.22 524.28C270.25 523.52 276.64 494.29 289.18 510C319.61 529.78 308.6 512.85 321.58 494.91C328.21 489.5 335.73 492.77 343.05 489.92C344.58 489.75 348.2 491.71 349.77 489.25C354.12 482.49 338.42 474.44 344.17 469.75C348.6 466.14 357.08 472.52 363.06 470.63C364.87 470.06 371.05 460.94 372.25 458.7C375.83 452.06 372.36 453.68 368.96 449.78C361.64 441.39 369.18 425.43 359.12 416.57C353.73 411.82 355.11 412.04 351.26 407.21C349.32 404.76 342.14 400.59 341.85 397.79C341.51 394.6 345.95 392.24 346.53 389.17C347.7 382.95 341.87 372.23 350.69 368.28C353.15 367.18 356.65 367.44 359.13 366.53C365.03 364.37 361.81 348.51 363.16 343.97C364.1 340.81 371.87 337.45 369.9 330.67C368.71 326.6 352.85 323.08 351.07 318.95C349.42 315.12 352.82 301.87 354.13 297.36C356.8 288.18 366.02 289.93 373.95 286.65C380.82 282.73 382.81 280.17 390.64 280.64C396.39 276.99 395.89 278.58 401.8 280.78C406 281.06 416.71 273.02 416.26 268.7L416.29 268.69Z" fill="#E9E4DD" fill-opacity="0.1"/>
<path d="M453.23 216.01C450.19 221.11 432.63 220.04 426.39 221.27C408.38 224.82 404.05 232.85 382.17 231.12C360.32 229.4 361.24 213.63 354.05 198.97C350.78 192.29 345.01 185.62 340.77 179.38C334.76 159.56 306.94 161.51 293.34 171.99C284.12 179.57 272.87 190.01 263.14 197.77C264.88 190.58 261.9 183.04 261.77 176.07C261.83 173.15 263.44 168.46 262.89 165.74C262.25 160.38 248.94 154.62 248.91 148.53C261.71 146.25 270.05 132.94 274.15 121.5C280 103.59 261.6 95.6602 248.13 91.1602C241.51 89.8502 229.93 101.35 223.4 104.44C217.7 107.13 211.24 108.01 205.37 110.68C195.53 115.14 186.41 125.2 175.31 126.8C163.07 128.22 122.04 130.03 144.22 109.03C174.67 93.6302 178.88 94.8202 192.46 61.7602C193.88 58.7402 196.81 52.0602 200.54 51.9702C206.24 51.8102 209.9 56.8502 217.37 52.2402C218.46 51.5602 233.16 36.1102 234.18 34.6102C238.23 28.6502 236.13 20.8702 245.99 21.3102C249.15 21.4502 254.25 23.5402 256.59 25.6202C267.62 40.8202 264.1 33.5502 274.64 21.8302C278.69 17.8402 284.16 15.6402 288.58 12.2902C294.95 6.9902 306.15 -6.6498 313.58 3.9202C315.03 9.2202 305.77 28.7702 316.63 30.5802C320.77 30.9102 324.76 29.6002 329.55 31.7402C332.28 32.9602 332.31 36.1302 335.4 36.8502C344.37 37.5802 347.29 32.9402 354.14 42.3902C356.88 44.2902 361.79 44.2302 363.8 46.0402C365.46 47.5402 365.2 51.1602 367.5 51.7902C410.52 45.6802 380.5 69.7302 387.49 89.2802C389.95 91.7402 405.81 92.0002 410.64 93.9102C419.08 97.2502 419.38 113.21 417.44 120.75C416.87 122.97 415.15 125.91 414.85 127.61C414.51 129.58 417.58 141.75 418.73 143.73C421.01 147.64 424.91 147.64 427.26 150.07C431.91 154.87 424.5 156.19 423.71 159.79C422.61 164.78 434.03 183.09 437.53 187.55C443.35 194.96 460.07 204.58 453.23 216.03V216.01ZM264.72 109.46C254.46 95.1002 233.82 111.94 222.63 117.38C206.82 125.65 182.23 134.48 163.88 136.09C164.78 136.4 165.74 136.71 166.82 137.03C169.8 137.9 173.27 138.03 176.94 138.17C184.8 138.46 193.7 138.8 197.22 147.79L198.06 149.59C224.07 154.6 281.35 145.92 264.72 109.45V109.46Z" fill="#E9E4DD" fill-opacity="0.1"/>
<path d="M260.46 199.74C262.31 196.3 261.61 187.77 260.51 183.09C258.83 177.58 260.83 171.39 260.92 166.13C259.58 161.06 246.94 155.28 246.95 149.29C239.28 153.06 232.52 155.67 223.52 156.66C223.19 156.7 223.04 157.11 223.31 157.31C223.75 157.65 223.99 158.12 223.86 158.78L209.55 172.38C209.33 172.59 209.14 172.84 209.01 173.13C207.21 177.16 208.7 180.92 204.83 184.84C202.35 187.87 196.97 189.04 194.29 191.61C193.91 191.98 193.31 193.02 193.67 194.07C196.56 202.47 217.83 206.38 217.3 227.18C228.92 221.9 253.58 204.8 260.61 199.8L260.47 199.74H260.46Z" fill="#E9E4DD" fill-opacity="0.1"/>
</g>
<defs>
<clipPath id="clip0_1159_279">
<rect width="454.84" height="524.29" fill="white"/>
</clipPath>
</defs>
</svg>
