<svg width="13" height="8" viewBox="0 0 13 8" fill="none" xmlns="http://www.w3.org/2000/svg">
<path d="M0.915375 4.6105C0.691375 4.6105 0.563375 4.4345 0.563375 4.2425C0.563375 4.0345 0.691375 3.8745 0.915375 3.8745C3.49138 3.9225 8.30737 4.0985 10.6274 4.1465C10.9954 4.1625 11.0434 4.0185 10.7074 3.8265C9.36338 2.9945 8.72338 2.1785 8.37138 1.5545C8.30737 1.4585 8.29138 1.3785 8.29138 1.2985C8.29138 1.0425 8.51538 0.8345 8.72338 0.8345C8.81938 0.8345 8.91538 0.866499 8.97938 0.9625C9.66738 2.0345 10.5794 3.2825 12.0514 3.9705C12.2434 4.0665 12.3234 4.1465 12.3234 4.2425C12.3234 4.3225 12.2434 4.4185 12.0514 4.5145C10.5794 5.2025 9.68338 6.2585 9.02738 7.4105C8.93138 7.5705 8.81938 7.6345 8.69138 7.6345C8.51538 7.6345 8.32338 7.4265 8.32338 7.1705C8.32338 7.0745 8.33938 6.9465 8.41938 6.8185C8.73938 6.2905 9.37938 5.4905 10.7874 4.6425C11.1074 4.4665 11.0754 4.3225 10.6914 4.3225C8.38738 4.3705 3.50738 4.5305 0.915375 4.6105Z" fill="#1C1B1B"/>
</svg>
